{
  "accessors": [
    {
      "bufferView": 2,
      "componentType": 5126,
      "count": 65532,
      "max": [
        51.091285705566406,
        163.587158203125,
        18.125743865966797
      ],
      "min": [
        -26.646207809448242,
        7.702086925506592,
        -14.0059232711792
      ],
      "type": "VEC3"
    },
    {
      "bufferView": 2,
      "byteOffset": 786384,
      "componentType": 5126,
      "count": 65532,
      "max": [
        0.9999841451644897,
        0.9997761249542236,
        0.999999463558197
      ],
      "min": [
        -0.9999595284461975,
        -0.9992327690124512,
        -0.9999953508377075
      ],
      "type": "VEC3"
    },
    {
      "bufferView": 3,
      "componentType": 5126,
      "count": 65532,
      "max": [
        0.9999940991401672,
        0.9999912977218628,
        0.9998842477798462,
        1.0
      ],
      "min": [
        -0.9999990463256836,
        -0.9999875426292419,
        -0.9999661445617676,
        -1.0
      ],
      "type": "VEC4"
    },
    {
      "bufferView": 1,
      "componentType": 5126,
      "count": 65532,
      "max": [
        0.9514930248260498,
        0.9980080127716064
      ],
      "min": [
        0.0018990000244230032,
        0.0028150000143796206
      ],
      "type": "VEC2"
    },
    {
      "bufferView": 0,
      "componentType": 5125,
      "count": 362622,
      "type": "SCALAR"
    },
    {
      "bufferView": 2,
      "byteOffset": 1572768,
      "componentType": 5126,
      "count": 39730,
      "max": [
        55.43807601928711,
        163.82467651367188,
        25.53736114501953
      ],
      "min": [
        -55.16913986206055,
        5.644257068634033,
        -11.7901029586792
      ],
      "type": "VEC3"
    },
    {
      "bufferView": 2,
      "byteOffset": 2049528,
      "componentType": 5126,
      "count": 39730,
      "max": [
        0.9999911189079285,
        0.9997431039810181,
        0.9999943375587463
      ],
      "min": [
        -0.9999827742576599,
        -0.9998603463172913,
        -0.9999895691871643
      ],
      "type": "VEC3"
    },
    {
      "bufferView": 3,
      "byteOffset": 1048512,
      "componentType": 5126,
      "count": 39730,
      "max": [
        0.999969482421875,
        0.9999996423721313,
        0.9999832510948181,
        1.0
      ],
      "min": [
        -0.9999969005584717,
        -0.9999707937240601,
        -0.9998824596405029,
        -1.0
      ],
      "type": "VEC4"
    },
    {
      "bufferView": 1,
      "byteOffset": 524256,
      "componentType": 5126,
      "count": 39730,
      "max": [
        0.7759249806404114,
        0.9866099953651428
      ],
      "min": [
        0.0018990000244230032,
        0.0019920000340789557
      ],
      "type": "VEC2"
    },
    {
      "bufferView": 0,
      "byteOffset": 1450488,
      "componentType": 5125,
      "count": 216510,
      "type": "SCALAR"
    }
  ],
  "asset": {
    "extras": {
      "author": "deymar (https://sketchfab.com/deymar)",
      "license": "CC-BY-4.0 (http://creativecommons.org/licenses/by/4.0/)",
      "source": "https://sketchfab.com/3d-models/a-set-of-victorian-clothes-cfe0ad26828a42cebf49aea928ea8a15",
      "title": "a set of Victorian clothes"
    },
    "generator": "Sketchfab-12.67.0",
    "version": "2.0"
  },
  "bufferViews": [
    {
      "buffer": 0,
      "byteLength": 2316528,
      "name": "floatBufferViews",
      "target": 34963
    },
    {
      "buffer": 0,
      "byteLength": 842096,
      "byteOffset": 2316528,
      "byteStride": 8,
      "name": "floatBufferViews",
      "target": 34962
    },
    {
      "buffer": 0,
      "byteLength": 2526288,
      "byteOffset": 3158624,
      "byteStride": 12,
      "name": "floatBufferViews",
      "target": 34962
    },
    {
      "buffer": 0,
      "byteLength": 1684192,
      "byteOffset": 5684912,
      "byteStride": 16,
      "name": "floatBufferViews",
      "target": 34962
    }
  ],
  "buffers": [
    {
      "byteLength": 7369104,
      "uri": "scene.bin"
    }
  ],
  "images": [
    {
      "uri": "textures/Collar_FRONT_5309977_baseColor.jpeg"
    },
    {
      "uri": "textures/Collar_FRONT_5309977_metallicRoughness.png"
    },
    {
      "uri": "textures/Collar_FRONT_5309977_normal.png"
    }
  ],
  "materials": [
    {
      "doubleSided": true,
      "name": "Collar_FRONT_5309977",
      "normalTexture": {
        "index": 2
      },
      "pbrMetallicRoughness": {
        "baseColorTexture": {
          "index": 0
        },
        "metallicRoughnessTexture": {
          "index": 1
        }
      }
    }
  ],
  "meshes": [
    {
      "name": "defaultMaterial",
      "primitives": [
        {
          "attributes": {
            "NORMAL": 1,
            "POSITION": 0,
            "TANGENT": 2,
            "TEXCOORD_0": 3
          },
          "indices": 4,
          "material": 0,
          "mode": 4
        }
      ]
    },
    {
      "name": "defaultMaterial",
      "primitives": [
        {
          "attributes": {
            "NORMAL": 6,
            "POSITION": 5,
            "TANGENT": 7,
            "TEXCOORD_0": 8
          },
          "indices": 9,
          "material": 0,
          "mode": 4
        }
      ]
    }
  ],
  "nodes": [
    {
      "children": [
        1
      ],
      "matrix": [
        0.009642270393669605,
        0.0,
        0.0,
        0.0,
        0.0,
        2.1410141201426936e-18,
        -0.009642270393669605,
        0.0,
        0.0,
        0.009642270393669605,
        2.1410141201426936e-18,
        0.0,
        0.0,
        0.0,
        0.0,
        1.0
      ],
      "name": "Sketchfab_model"
    },
    {
      "children": [
        2
      ],
      "matrix": [
        1.0,
        0.0,
        0.0,
        0.0,
        0.0,
        -4.371139006309477e-08,
        0.999999999999999,
        0.0,
        0.0,
        -0.999999999999999,
        -4.371139006309477e-08,
        0.0,
        0.0,
        0.0,
        0.0,
        1.0
      ],
      "name": "Collada visual scene group"
    },
    {
      "children": [
        3,
        4
      ],
      "name": "aristo"
    },
    {
      "mesh": 0,
      "name": "defaultMaterial"
    },
    {
      "mesh": 1,
      "name": "defaultMaterial"
    }
  ],
  "samplers": [
    {
      "magFilter": 9729,
      "minFilter": 9987,
      "wrapS": 10497,
      "wrapT": 10497
    }
  ],
  "scene": 0,
  "scenes": [
    {
      "name": "Sketchfab_Scene",
      "nodes": [
        0
      ]
    }
  ],
  "textures": [
    {
      "sampler": 0,
      "source": 0
    },
    {
      "sampler": 0,
      "source": 1
    },
    {
      "sampler": 0,
      "source": 2
    }
  ]
}
